<?xml version="1.0" standalone="no"?>
<!DOCTYPE svg PUBLIC "-//W3C//DTD SVG 20010904//EN"
 "http://www.w3.org/TR/2001/REC-SVG-20010904/DTD/svg10.dtd">
<svg version="1.0" xmlns="http://www.w3.org/2000/svg"
 width="512.000000pt" height="512.000000pt" viewBox="0 0 512.000000 512.000000"
 preserveAspectRatio="xMidYMid meet">

<g transform="translate(0.000000,512.000000) scale(0.100000,-0.100000)"
fill="#000000" stroke="none">
<path d="M43 4853 c-20 -19 -34 -44 -39 -68 -10 -53 3 -433 22 -635 42 -465
145 -844 297 -1094 53 -88 154 -212 213 -262 182 -156 432 -237 729 -237 215
1 428 46 577 123 68 35 53 51 131 -140 214 -525 325 -1147 346 -1930 8 -308
12 -330 62 -356 48 -25 103 -18 138 16 36 36 38 51 46 294 17 566 144 1116
355 1535 42 84 134 247 145 260 2 2 25 -15 50 -37 59 -52 198 -124 312 -161
135 -44 267 -63 433 -63 515 2 840 223 1039 707 135 328 201 717 217 1279 10
359 29 341 -354 333 -795 -18 -1316 -158 -1650 -446 -205 -176 -322 -472 -322
-811 0 -179 42 -394 105 -535 l25 -57 -64 -102 c-87 -139 -156 -270 -214 -407
-56 -131 -133 -347 -152 -427 -7 -29 -14 -51 -17 -49 -2 3 -17 74 -32 158 -72
383 -169 706 -300 1000 l-52 117 46 65 c156 224 228 583 180 901 -48 315 -181
534 -427 698 -341 228 -823 340 -1533 355 l-280 6 -32 -30z m709 -228 c657
-66 1088 -253 1240 -540 106 -201 132 -501 67 -765 -20 -79 -81 -230 -93 -230
-3 0 -32 40 -65 88 -180 269 -365 452 -683 678 -112 80 -138 94 -171 94 -50 0
-92 -30 -107 -75 -25 -75 2 -110 185 -240 245 -174 400 -328 556 -550 31 -44
68 -101 83 -127 l27 -47 -38 -19 c-253 -128 -673 -134 -922 -13 -176 85 -311
252 -412 509 -93 239 -158 597 -174 962 -3 74 -8 173 -11 219 l-5 84 185 -6
c102 -4 254 -14 338 -22z m4134 -507 c-3 -40 -8 -138 -11 -218 -15 -366 -82
-739 -175 -976 -72 -181 -190 -356 -292 -432 -238 -178 -644 -213 -980 -86
-69 26 -205 115 -215 140 -6 16 35 69 150 190 166 176 405 352 650 479 135 71
161 95 161 151 0 65 -49 114 -116 114 -38 0 -153 -53 -285 -130 -221 -131
-380 -254 -560 -436 l-133 -133 -10 41 c-76 282 -54 589 58 803 94 178 326
336 636 429 251 77 654 131 1004 135 l123 1 -5 -72z"/>
</g>
</svg>
